# xmcd
#
# Track frame offsets: 
#        183
#        16780
#        35348
#        52203
#        70318
#        93065
#        112188
#        126310
#        146713
#        163145
#        179583
#        199465
#        217118
#        234750
#        250468
#        267938
#        285908
#        306275
#        324420
#        342923
#
# Disc length: 4782 seconds
#
# Revision: 4
# Processed by: cddbd v1.5.2PL0 Copyright (c) Steve Scherf et al.
# Submitted via: ExactAudioCopyFreeDBPlugin 1.0
#
DISCID=3512ac14
DTITLE=Various Artist - Best Swing '95 [CD1)
DYEAR=1995
DGENRE=R&B
TTITLE0=Mary J. Blige - Mary Jane (All Night Long) (Radio Mix)
TTITLE1=Monica - Don't Take It Personal (Just One Of Dem Days)
TTITLE2=Brownstone - Grapevyne
TTITLE3=Jodeci - Freek 'N You (Rado Edit)
TTITLE4=911 - Cutie (Funk Mix With Rap)
TTITLE5=Towa Tei - Luv Connection (Radio Edit)
TTITLE6=Aaliyah - (At Your Best) You Are Love (Stepper's Ball Remix)
TTITLE7=Total feat. The Notorious B.I.G. - Can't You See
TTITLE8=Missjones - Where I Wanna Be Boy
TTITLE9=Wayne Marshall - Your G Spot (Back In The Day Mix)
TTITLE10=Soul For Real - Candy Rain (Album Version)
TTITLE11=R. Kelly - She's Got That Vibe
TTITLE12=Brandy - I Wanna Be Down (Human Rhythm Hip Hop Remix)
TTITLE13=Mark Morrison - Crazy (Original Mix)
TTITLE14=Smooth - Mind Blowin'
TTITLE15=Truce - Treat U Right (7* Edit)
TTITLE16=Paul Johnson - If We Lose Our Way (Long 'Rhodes' Mix)
TTITLE17=Aaron Hall - I Miss You
TTITLE18=Kreuz - Get Down On It
TTITLE19=Damage - What U C (Iz What U Get) (Radio Edit)
EXTD=
EXTT0=
EXTT1=
EXTT2=
EXTT3=
EXTT4=
EXTT5=
EXTT6=
EXTT7=
EXTT8=
EXTT9=
EXTT10=
EXTT11=
EXTT12=
EXTT13=
EXTT14=
EXTT15=
EXTT16=
EXTT17=
EXTT18=
EXTT19=
PLAYORDER=
